# xmcd
#
# Track frame offsets:
#	150
#	18050
#	32171
#	53246
#	68780
#	77942
#	90852
#	101303
#	115971
#	135706
#	147280
#
# Disc length: 2250 seconds
#
# Revision: 1
# Processed by: cddbd v1.5PL3 Copyright (c) Steve Scherf et al.
# Submitted via: audiograbber 1.83.01
#
DISCID=8708c80b
DTITLE=Brent Moyer - Fait Plaisir - Swiss Festival Tour
DYEAR=2001
DGENRE=Country
TTITLE0=Fait Plaisir
TTITLE1=When Love Gets A 'Hold Of Your Heart
TTITLE2=The Ballad Of Alberta And The Gypsy Cowboy
TTITLE3=Trouble With Trout Fishing On The Great Divide
TTITLE4=Silver Dollar Rag
TTITLE5=Walla Wella Alright
TTITLE6=How Sexy
TTITLE7=Red Lips, Blue Eyes, Little White Lies
TTITLE8=Florida Fiddler
TTITLE9=Some Lucky Stardust
TTITLE10=Flower Of The Seas
EXTD=
EXTT0=
EXTT1=
EXTT2=
EXTT3=
EXTT4=
EXTT5=
EXTT6=
EXTT7=
EXTT8=
EXTT9=
EXTT10=
PLAYORDER=
